<?xml version="1.0" encoding="UTF-8" standalone="no"?>
<svg xmlns="http://www.w3.org/2000/svg" width="512" height="512" viewBox="0 0 512 512">
  <!-- Background Circle -->
  <circle cx="256" cy="256" r="250" fill="#e74c3c" />
  
  <!-- Spider web - simplified -->
  <g stroke="#ffffff" stroke-width="5" fill="none">
    <!-- Radial lines -->
    <line x1="256" y1="256" x2="256" y2="6" />
    <line x1="256" y1="256" x2="256" y2="506" />
    <line x1="256" y1="256" x2="6" y2="256" />
    <line x1="256" y1="256" x2="506" y2="256" />
    <line x1="256" y1="256" x2="75" y2="75" />
    <line x1="256" y1="256" x2="437" y2="75" />
    <line x1="256" y1="256" x2="75" y2="437" />
    <line x1="256" y1="256" x2="437" y2="437" />
    
    <!-- Concentric circles -->
    <circle cx="256" cy="256" r="80" />
    <circle cx="256" cy="256" r="160" />
    <circle cx="256" cy="256" r="240" />
  </g>
  
  <!-- Spider -->
  <g fill="#2c3e50">
    <!-- Body -->
    <circle cx="256" cy="256" r="40" />
    
    <!-- Legs -->
    <path d="M 276 236 C 320 180, 340 160, 390 140" stroke="#2c3e50" stroke-width="8" fill="none" />
    <path d="M 276 276 C 320 320, 340 360, 390 380" stroke="#2c3e50" stroke-width="8" fill="none" />
    <path d="M 236 276 C 180 320, 160 360, 120 390" stroke="#2c3e50" stroke-width="8" fill="none" />
    <path d="M 236 236 C 180 180, 160 160, 120 130" stroke="#2c3e50" stroke-width="8" fill="none" />
    
    <!-- Additional legs -->
    <path d="M 290 256 C 350 260, 380 260, 430 250" stroke="#2c3e50" stroke-width="8" fill="none" />
    <path d="M 222 256 C 160 260, 130 260, 80 250" stroke="#2c3e50" stroke-width="8" fill="none" />
    <path d="M 256 290 C 260 350, 260 380, 250 430" stroke="#2c3e50" stroke-width="8" fill="none" />
    <path d="M 256 222 C 260 160, 260 130, 250 80" stroke="#2c3e50" stroke-width="8" fill="none" />
  </g>
  
  <!-- Eyes -->
  <circle cx="246" cy="246" r="6" fill="#ffffff" />
  <circle cx="266" cy="246" r="6" fill="#ffffff" />
  
  <!-- Text "FIRECRAWL" at the bottom -->
  <text x="256" y="480" font-family="Arial, sans-serif" font-size="40" font-weight="bold" text-anchor="middle" fill="#ffffff">FIRECRAWL</text>
</svg>
