<?xml version="1.0" encoding="UTF-8" standalone="no"?>
<svg xmlns="http://www.w3.org/2000/svg" width="1024" height="1024" viewBox="0 0 1024 1024">
  <!-- Rounded square background -->
  <rect x="12" y="12" width="1000" height="1000" rx="200" ry="200" fill="#e74c3c" />
  
  <!-- Fire icon -->
  <g transform="translate(262, 150) scale(0.5)">
    <!-- Outer flame -->
    <path d="M512 64c0 0-288 149.9-288 352 0 128 96 224 256 224s256-96 256-224c0-202.1-224-352-224-352z" 
          fill="#ff5722" />
    
    <!-- Inner flame -->
    <path d="M512 140c0 0-144 93.4-144 208 0 89.6 64 160 144 160s144-70.4 144-160c0-114.6-144-208-144-208z" 
          fill="#ff9800" />
    
    <!-- Hottest part -->
    <path d="M512 180c0 0-64 56.6-64 128 0 57.6 32 96 64 96s64-38.4 64-96c0-71.4-64-128-64-128z" 
          fill="#ffeb3b" />
  </g>
  
  <!-- Text -->
  <text x="512" y="850" font-family="Arial, sans-serif" font-size="120" font-weight="bold" text-anchor="middle" fill="white">
    Firecrawl
  </text>
</svg>
